<svg width="47" height="53" viewBox="0 0 47 53" fill="none" xmlns="http://www.w3.org/2000/svg">
<g filter="url(#filter0_d_14_13)">
<path d="M34.2674 26.6202C34.121 26.6573 33.9013 26.8615 33.6084 27.2327C33.3521 27.604 33.169 27.9939 33.0591 28.4023C32.8761 28.9963 32.931 29.4789 33.2239 29.8502C33.9928 30.7784 34.9814 31.8736 36.1897 33.136C37.398 34.3612 38.6063 35.5307 39.8145 36.6445C41.0594 37.7583 42.1212 38.6122 43 39.2062C42.3409 40.9883 41.2974 42.4177 39.8695 43.4944C38.4781 44.534 36.922 45.0352 35.2011 44.9981C33.4802 44.9609 31.7959 44.1813 30.1483 42.6591C29.9286 42.4363 29.5075 41.9537 28.8851 41.2111C28.2626 40.4314 27.5487 39.5218 26.7431 38.4823C25.9376 37.4427 25.1321 36.4031 24.3266 35.3636C23.5211 34.324 22.8254 33.4144 22.2395 32.6347C21.6537 31.8551 21.2876 31.3724 21.1411 31.1868C20.4454 30.2586 19.7864 30.0544 19.1639 30.5742C18.5415 31.094 18.157 32.1707 18.0106 33.8042C17.9373 34.7696 17.9373 35.8834 18.0106 37.1457C18.1204 38.3709 18.2669 39.4661 18.4499 40.4314C18.6696 41.3967 18.8893 41.9722 19.109 42.1579C18.3401 42.7519 17.3881 43.3088 16.2531 43.8286C15.118 44.3484 13.8182 44.6639 12.3536 44.7753C11.8044 44.8124 11.1636 44.6639 10.4313 44.3298C9.69906 43.9956 9.0583 43.4573 8.50908 42.7148C7.99648 41.9351 7.72187 40.9698 7.68526 39.8188C7.68526 39.5218 7.66695 38.7422 7.63033 37.4798C7.63033 36.2175 7.61203 34.6767 7.57541 32.8575C7.57541 31.0012 7.57541 29.0891 7.57541 27.1214C7.57541 25.1536 7.5571 23.2973 7.52049 21.5523C7.52049 19.8073 7.52049 18.3965 7.52049 17.3198C7.52049 16.2431 7.52049 15.7048 7.52049 15.7048C7.52049 13.5143 7.46557 11.695 7.35572 10.2471C7.24588 8.762 6.80651 7.62962 6.0376 6.84995C5.34192 6.14454 4.81101 5.12354 4.44487 3.78696C4.11534 2.45039 3.96888 1.18807 4.00549 0C4.15195 0.0371266 4.59133 0.0928166 5.32362 0.16707C6.05591 0.204199 6.76989 0.25989 7.46557 0.334143C7.94156 0.334143 8.61893 0.334143 9.49768 0.334143C10.413 0.297017 11.3833 0.25989 12.4085 0.222763C13.4337 0.185634 14.3857 0.16707 15.2645 0.16707C16.1432 0.129943 16.8023 0.0928166 17.2417 0.05569C17.5712 0.05569 18.1753 0.05569 19.0541 0.05569C19.9694 0.0185633 21.0313 0 22.2395 0C23.4478 0 24.6744 0.0185633 25.9193 0.05569C27.1642 0.05569 28.3176 0.0928166 29.3794 0.16707C30.4412 0.241325 31.265 0.334143 31.8509 0.445523C34.2674 0.89105 36.1348 1.70785 37.4529 2.89592C38.771 4.08398 39.7047 5.51338 40.2539 7.1841C40.8397 8.85482 41.1876 10.674 41.2974 12.6418C41.3706 14.3125 41.1876 16.0575 40.7482 17.8767C40.3088 19.6959 39.5582 21.3852 38.4964 22.9446C37.4346 24.5039 36.0249 25.7291 34.2674 26.6202ZM18.1204 14.6467C18.1204 15.8347 18.395 16.7258 18.9442 17.3198C19.4935 17.8767 20.0061 18.2109 20.482 18.3222C21.1411 18.4707 21.9832 18.4893 23.0084 18.3779C24.0337 18.2294 25.0589 17.9695 26.0841 17.5983C27.1093 17.1899 27.9697 16.6701 28.6654 16.0389C29.3977 15.4078 29.7638 14.6838 29.7638 13.867C29.7638 12.7903 29.3245 11.9735 28.4457 11.4166C27.567 10.8226 26.4502 10.4513 25.0955 10.3028C23.7774 10.1543 22.4592 10.1914 21.1411 10.4142C20.1159 10.5627 19.347 11.0268 18.8344 11.8064C18.3218 12.5861 18.0838 13.5328 18.1204 14.6467Z" fill="#F0872B"/>
</g>
<defs>
<filter id="filter0_d_14_13" x="0" y="0" width="47" height="53" filterUnits="userSpaceOnUse" color-interpolation-filters="sRGB">
<feFlood flood-opacity="0" result="BackgroundImageFix"/>
<feColorMatrix in="SourceAlpha" type="matrix" values="0 0 0 0 0 0 0 0 0 0 0 0 0 0 0 0 0 0 127 0" result="hardAlpha"/>
<feOffset dy="4"/>
<feGaussianBlur stdDeviation="2"/>
<feComposite in2="hardAlpha" operator="out"/>
<feColorMatrix type="matrix" values="0 0 0 0 0 0 0 0 0 0 0 0 0 0 0 0 0 0 0.25 0"/>
<feBlend mode="normal" in2="BackgroundImageFix" result="effect1_dropShadow_14_13"/>
<feBlend mode="normal" in="SourceGraphic" in2="effect1_dropShadow_14_13" result="shape"/>
</filter>
</defs>
</svg>
