<svg width="1916" height="109" viewBox="0 0 1916 109" fill="none" xmlns="http://www.w3.org/2000/svg">
<g filter="url(#filter0_d_11_2)">
<path d="M179.64 55.32C179.533 55.3467 179.373 55.4933 179.16 55.76C178.973 56.0267 178.84 56.3067 178.76 56.6C178.627 57.0267 178.667 57.3733 178.88 57.64C179.44 58.3067 180.16 59.0933 181.04 60C181.92 60.88 182.8 61.72 183.68 62.52C184.587 63.32 185.36 63.9333 186 64.36C185.52 65.64 184.76 66.6667 183.72 67.44C182.707 68.1867 181.573 68.5467 180.32 68.52C179.067 68.4933 177.84 67.9333 176.64 66.84C176.48 66.68 176.173 66.3333 175.72 65.8C175.267 65.24 174.747 64.5867 174.16 63.84C173.573 63.0933 172.987 62.3467 172.4 61.6C171.813 60.8533 171.307 60.2 170.88 59.64C170.453 59.08 170.187 58.7333 170.08 58.6C169.573 57.9333 169.093 57.7867 168.64 58.16C168.187 58.5333 167.907 59.3067 167.8 60.48C167.747 61.1733 167.747 61.9733 167.8 62.88C167.88 63.76 167.987 64.5467 168.12 65.24C168.28 65.9333 168.44 66.3467 168.6 66.48C168.04 66.9067 167.347 67.3067 166.52 67.68C165.693 68.0533 164.747 68.28 163.68 68.36C163.28 68.3867 162.813 68.28 162.28 68.04C161.747 67.8 161.28 67.4133 160.88 66.88C160.507 66.32 160.307 65.6267 160.28 64.8C160.28 64.5867 160.267 64.0267 160.24 63.12C160.24 62.2133 160.227 61.1067 160.2 59.8C160.2 58.4667 160.2 57.0933 160.2 55.68C160.2 54.2667 160.187 52.9333 160.16 51.68C160.16 50.4267 160.16 49.4133 160.16 48.64C160.16 47.8667 160.16 47.48 160.16 47.48C160.16 45.9067 160.12 44.6 160.04 43.56C159.96 42.4933 159.64 41.68 159.08 41.12C158.573 40.6133 158.187 39.88 157.92 38.92C157.68 37.96 157.573 37.0533 157.6 36.2C157.707 36.2267 158.027 36.2667 158.56 36.32C159.093 36.3467 159.613 36.3867 160.12 36.44C160.467 36.44 160.96 36.44 161.6 36.44C162.267 36.4133 162.973 36.3867 163.72 36.36C164.467 36.3333 165.16 36.32 165.8 36.32C166.44 36.2933 166.92 36.2667 167.24 36.24C167.48 36.24 167.92 36.24 168.56 36.24C169.227 36.2133 170 36.2 170.88 36.2C171.76 36.2 172.653 36.2133 173.56 36.24C174.467 36.24 175.307 36.2667 176.08 36.32C176.853 36.3733 177.453 36.44 177.88 36.52C179.64 36.84 181 37.4267 181.96 38.28C182.92 39.1333 183.6 40.16 184 41.36C184.427 42.56 184.68 43.8667 184.76 45.28C184.813 46.48 184.68 47.7333 184.36 49.04C184.04 50.3467 183.493 51.56 182.72 52.68C181.947 53.8 180.92 54.68 179.64 55.32ZM167.88 46.72C167.88 47.5733 168.08 48.2133 168.48 48.64C168.88 49.04 169.253 49.28 169.6 49.36C170.08 49.4667 170.693 49.48 171.44 49.4C172.187 49.2933 172.933 49.1067 173.68 48.84C174.427 48.5467 175.053 48.1733 175.56 47.72C176.093 47.2667 176.36 46.7467 176.36 46.16C176.36 45.3867 176.04 44.8 175.4 44.4C174.76 43.9733 173.947 43.7067 172.96 43.6C172 43.4933 171.04 43.52 170.08 43.68C169.333 43.7867 168.773 44.12 168.4 44.68C168.027 45.24 167.853 45.92 167.88 46.72Z" fill="#F0872B"/>
</g>
<g filter="url(#filter1_d_11_2)">
<path d="M205.356 43.9885L206.571 47.0154C207.461 49.2313 209.58 50.7085 211.967 50.777L214.629 50.8533C216.556 50.9086 217.297 53.3903 215.715 54.4931L214.338 55.4536C212.174 56.9626 211.249 59.7083 212.06 62.219L212.687 64.1608C213.257 65.9255 211.326 67.4483 209.743 66.4831L206.623 64.5814C204.705 63.4123 202.295 63.4123 200.377 64.5814L197.257 66.4831C195.674 67.4483 193.743 65.9255 194.313 64.1608L194.94 62.219C195.751 59.7083 194.826 56.9626 192.662 55.4536L191.285 54.4931C189.703 53.3903 190.444 50.9086 192.371 50.8533L195.033 50.777C197.42 50.7085 199.539 49.2313 200.429 47.0154L201.644 43.9885C202.316 42.3156 204.684 42.3156 205.356 43.9885Z" stroke="#F0872B" stroke-width="4" shape-rendering="crispEdges"/>
</g>
<g filter="url(#filter2_d_11_2)">
<path d="M239.356 43.9885L240.571 47.0154C241.461 49.2313 243.58 50.7085 245.967 50.777L248.629 50.8533C250.556 50.9086 251.297 53.3903 249.715 54.4931L248.338 55.4536C246.174 56.9626 245.249 59.7083 246.06 62.219L246.687 64.1608C247.257 65.9255 245.326 67.4483 243.743 66.4831L240.623 64.5814C238.705 63.4123 236.295 63.4123 234.377 64.5814L231.257 66.4831C229.674 67.4483 227.743 65.9255 228.313 64.1608L228.94 62.219C229.751 59.7083 228.826 56.9626 226.662 55.4536L225.285 54.4931C223.703 53.3903 224.444 50.9086 226.371 50.8533L229.033 50.777C231.42 50.7085 233.539 49.2313 234.429 47.0154L235.644 43.9885C236.316 42.3156 238.684 42.3156 239.356 43.9885Z" stroke="#F0872B" stroke-width="4" shape-rendering="crispEdges"/>
</g>
<g filter="url(#filter3_d_11_2)">
<path d="M270.12 45.52C270.627 45.4667 271.12 45.3867 271.6 45.28C272.08 45.1467 272.413 44.9867 272.6 44.8C272.867 45.0667 273.067 45.56 273.2 46.28C273.36 46.9733 273.4 47.7333 273.32 48.56C273.267 49.3867 273.067 50.1467 272.72 50.84C272.4 51.5333 271.907 52 271.24 52.24C270.893 52.3467 270.587 52.48 270.32 52.64C270.053 52.7733 269.84 53.0133 269.68 53.36C269.413 53.92 269.187 54.6267 269 55.48C268.813 56.3333 268.733 57.2933 268.76 58.36C268.76 58.36 268.76 58.6133 268.76 59.12C268.787 59.6 268.8 60.2 268.8 60.92C268.8 61.6133 268.773 62.2933 268.72 62.96C268.693 63.6267 268.627 64.1467 268.52 64.52C268.093 65.8 267.227 66.7867 265.92 67.48C264.613 68.1733 262.653 68.3467 260.04 68C260.253 67.6267 260.427 67.0133 260.56 66.16C260.693 65.3067 260.8 64.3733 260.88 63.36C260.96 62.3467 260.987 61.44 260.96 60.64C260.96 60.48 260.947 60.16 260.92 59.68C260.893 59.2 260.867 58.6 260.84 57.88C260.68 56.2267 260.24 54.7867 259.52 53.56C259.333 53.2667 258.987 52.92 258.48 52.52C258 52.12 257.573 51.8 257.2 51.56C256.72 51.2667 256.36 50.72 256.12 49.92C255.88 49.12 255.72 48.28 255.64 47.4C255.587 46.4933 255.573 45.7333 255.6 45.12C255.68 45.1467 255.88 45.1867 256.2 45.24C256.52 45.2933 256.867 45.3333 257.24 45.36C257.613 45.3867 257.907 45.4 258.12 45.4C258.76 45.3467 259.28 45.0933 259.68 44.64C260.08 44.1867 260.28 43.4933 260.28 42.56C260.28 41.4933 260.44 40.44 260.76 39.4C261.107 38.36 261.653 37.4667 262.4 36.72C263.173 35.9467 264.187 35.44 265.44 35.2C266.293 35.04 267.2 34.92 268.16 34.84C269.147 34.76 270.08 34.7067 270.96 34.68C271.84 34.6533 272.547 34.64 273.08 34.64C273.64 34.64 273.92 34.64 273.92 34.64C273.92 34.64 273.92 34.92 273.92 35.48C273.92 36.0133 273.853 36.6533 273.72 37.4C273.613 38.1467 273.387 38.8533 273.04 39.52C272.72 40.16 272.227 40.5867 271.56 40.8C270.573 41.12 269.773 41.64 269.16 42.36C268.573 43.08 268.293 43.72 268.32 44.28C268.32 44.8667 268.493 45.24 268.84 45.4C269.187 45.5333 269.613 45.5733 270.12 45.52Z" fill="#F0872B"/>
<path d="M277.803 63.72C277.803 63.5067 277.803 62.9333 277.803 62C277.803 61.04 277.803 59.8533 277.803 58.44C277.803 57.0267 277.79 55.48 277.763 53.8C277.763 52.0933 277.763 50.3733 277.763 48.64C277.763 46.9067 277.75 45.2667 277.723 43.72C277.723 42.1467 277.71 40.7867 277.683 39.64C277.657 38.5467 277.563 37.64 277.403 36.92C277.243 36.1733 277.15 35.72 277.123 35.56C277.443 35.5067 277.923 35.4933 278.563 35.52C279.203 35.52 279.91 35.6 280.683 35.76C281.483 35.8933 282.243 36.12 282.963 36.44C283.683 36.7333 284.283 37.16 284.763 37.72C285.243 38.2533 285.497 38.9333 285.523 39.76C285.55 40.2667 285.563 41.16 285.563 42.44C285.59 43.6933 285.603 45.1733 285.603 46.88C285.63 48.56 285.657 50.2933 285.683 52.08C285.71 53.84 285.723 55.5067 285.723 57.08C285.75 58.6533 285.763 59.9733 285.763 61.04C285.79 62.08 285.803 62.6933 285.803 62.88C285.803 63.44 285.95 63.9867 286.243 64.52C286.563 65.0267 286.897 65.3467 287.243 65.48C287.083 65.6933 286.723 65.9733 286.163 66.32C285.603 66.6667 284.95 66.9867 284.203 67.28C283.483 67.5733 282.75 67.76 282.003 67.84C281.39 67.8933 280.75 67.7467 280.083 67.4C279.443 67.08 278.897 66.6 278.443 65.96C278.017 65.32 277.803 64.5733 277.803 63.72ZM304.564 44.04C306.404 44.28 307.737 44.8133 308.564 45.64C309.417 46.4667 309.897 47.44 310.004 48.56C310.137 49.68 310.017 50.8267 309.644 52C309.43 52.6667 309.11 53.52 308.684 54.56C308.284 55.5733 307.857 56.6133 307.404 57.68C306.977 58.7467 306.577 59.7067 306.204 60.56C305.83 61.3867 305.577 61.9733 305.444 62.32C305.017 63.3067 304.51 64.36 303.924 65.48C303.337 66.5733 302.684 67.6 301.964 68.56C301.27 69.52 300.537 70.3067 299.764 70.92C299.017 71.5333 298.284 71.84 297.564 71.84C296.604 71.84 295.817 71.6 295.204 71.12C294.617 70.64 294.177 70.04 293.884 69.32C293.59 68.6267 293.404 67.9467 293.324 67.28C294.017 67.4667 294.657 67.4533 295.244 67.24C295.83 67.0533 296.337 66.7733 296.764 66.4C297.164 66.0267 297.404 65.6 297.484 65.12C297.59 64.64 297.617 64.2133 297.564 63.84C297.43 62.3467 297.017 60.7333 296.324 59L290.444 44.44C290.844 44.3867 291.364 44.32 292.004 44.24C292.67 44.1333 293.364 44.12 294.084 44.2C294.83 44.2533 295.524 44.4533 296.164 44.8C296.83 45.12 297.377 45.6667 297.804 46.44C297.964 46.7067 298.15 47.12 298.364 47.68C298.604 48.2133 298.844 48.7867 299.084 49.4C299.35 49.9867 299.564 50.4933 299.724 50.92C300.017 51.56 300.324 52.08 300.644 52.48C300.99 52.8533 301.337 53.0533 301.684 53.08C301.977 53.1067 302.27 53 302.564 52.76C302.857 52.4933 303.097 52.16 303.284 51.76C303.444 51.3867 303.63 50.8267 303.844 50.08C304.057 49.3333 304.23 48.7067 304.364 48.2C304.604 47.2667 304.724 46.4667 304.724 45.8C304.75 45.1333 304.697 44.5467 304.564 44.04Z" fill="#2E8407" fill-opacity="0.88"/>
</g>
<defs>
<filter id="filter0_d_11_2" x="153.56" y="36.2" width="36.4399" height="40.3601" filterUnits="userSpaceOnUse" color-interpolation-filters="sRGB">
<feFlood flood-opacity="0" result="BackgroundImageFix"/>
<feColorMatrix in="SourceAlpha" type="matrix" values="0 0 0 0 0 0 0 0 0 0 0 0 0 0 0 0 0 0 127 0" result="hardAlpha"/>
<feOffset dy="4"/>
<feGaussianBlur stdDeviation="2"/>
<feComposite in2="hardAlpha" operator="out"/>
<feColorMatrix type="matrix" values="0 0 0 0 0 0 0 0 0 0 0 0 0 0 0 0 0 0 0.25 0"/>
<feBlend mode="normal" in2="BackgroundImageFix" result="effect1_dropShadow_11_2"/>
<feBlend mode="normal" in="SourceGraphic" in2="effect1_dropShadow_11_2" result="shape"/>
</filter>
<filter id="filter1_d_11_2" x="184.422" y="40.7339" width="38.156" height="36.0566" filterUnits="userSpaceOnUse" color-interpolation-filters="sRGB">
<feFlood flood-opacity="0" result="BackgroundImageFix"/>
<feColorMatrix in="SourceAlpha" type="matrix" values="0 0 0 0 0 0 0 0 0 0 0 0 0 0 0 0 0 0 127 0" result="hardAlpha"/>
<feOffset dy="4"/>
<feGaussianBlur stdDeviation="2"/>
<feComposite in2="hardAlpha" operator="out"/>
<feColorMatrix type="matrix" values="0 0 0 0 0 0 0 0 0 0 0 0 0 0 0 0 0 0 0.25 0"/>
<feBlend mode="normal" in2="BackgroundImageFix" result="effect1_dropShadow_11_2"/>
<feBlend mode="normal" in="SourceGraphic" in2="effect1_dropShadow_11_2" result="shape"/>
</filter>
<filter id="filter2_d_11_2" x="218.422" y="40.7339" width="38.156" height="36.0566" filterUnits="userSpaceOnUse" color-interpolation-filters="sRGB">
<feFlood flood-opacity="0" result="BackgroundImageFix"/>
<feColorMatrix in="SourceAlpha" type="matrix" values="0 0 0 0 0 0 0 0 0 0 0 0 0 0 0 0 0 0 127 0" result="hardAlpha"/>
<feOffset dy="4"/>
<feGaussianBlur stdDeviation="2"/>
<feComposite in2="hardAlpha" operator="out"/>
<feColorMatrix type="matrix" values="0 0 0 0 0 0 0 0 0 0 0 0 0 0 0 0 0 0 0.25 0"/>
<feBlend mode="normal" in2="BackgroundImageFix" result="effect1_dropShadow_11_2"/>
<feBlend mode="normal" in="SourceGraphic" in2="effect1_dropShadow_11_2" result="shape"/>
</filter>
<filter id="filter3_d_11_2" x="251.56" y="34.6399" width="62.6437" height="45.2002" filterUnits="userSpaceOnUse" color-interpolation-filters="sRGB">
<feFlood flood-opacity="0" result="BackgroundImageFix"/>
<feColorMatrix in="SourceAlpha" type="matrix" values="0 0 0 0 0 0 0 0 0 0 0 0 0 0 0 0 0 0 127 0" result="hardAlpha"/>
<feOffset dy="4"/>
<feGaussianBlur stdDeviation="2"/>
<feComposite in2="hardAlpha" operator="out"/>
<feColorMatrix type="matrix" values="0 0 0 0 0 0 0 0 0 0 0 0 0 0 0 0 0 0 0.25 0"/>
<feBlend mode="normal" in2="BackgroundImageFix" result="effect1_dropShadow_11_2"/>
<feBlend mode="normal" in="SourceGraphic" in2="effect1_dropShadow_11_2" result="shape"/>
</filter>
</defs>
</svg>
