<svg width="19" height="17" viewBox="0 0 19 17" fill="none" xmlns="http://www.w3.org/2000/svg">
<g clip-path="url(#clip0_28_164)">
<path d="M18.1904 8.64963C18.1904 7.88011 17.5275 7.25401 16.7126 7.25401H2.67039V2.71781C2.67039 2.19562 3.1202 1.7708 3.67311 1.7708H3.93562C4.20727 1.7708 4.46356 1.87509 4.64967 2.05309L4.60517 2.09512C3.8578 2.80097 3.8578 3.94941 4.60517 4.65534L4.8587 4.89478C4.97047 5.00034 5.11696 5.05315 5.26354 5.05315C5.41011 5.05315 5.55653 5.00041 5.66837 4.89478L8.17157 2.53065C8.3951 2.31955 8.3951 1.97715 8.17157 1.76604L7.91804 1.52659C7.55605 1.18464 7.07466 0.996369 6.56271 0.996369C6.17134 0.996369 5.79809 1.10668 5.48218 1.31124C5.08231 0.919677 4.52617 0.689453 3.9357 0.689453H3.67319C2.48893 0.689453 1.52544 1.59934 1.52544 2.71788V7.26092C0.777361 7.32899 0.19043 7.92579 0.19043 8.64971C0.19043 9.24175 0.58345 9.74764 1.13557 9.95005V11.732C1.13557 13.3037 2.32006 14.6191 3.89025 14.9239L3.3991 15.3878C3.17557 15.5989 3.17557 15.9412 3.3991 16.1523C3.51086 16.2579 3.65735 16.3107 3.80393 16.3107C3.9505 16.3107 4.09692 16.258 4.20876 16.1523L5.43965 14.9904H12.9409L14.1722 16.1523C14.2839 16.2579 14.4304 16.3107 14.577 16.3107C14.7235 16.3107 14.87 16.258 14.9818 16.1523C15.2054 15.9412 15.2054 15.5989 14.9818 15.3878L14.4907 14.9239C16.061 14.6191 17.2454 13.3038 17.2454 11.732V9.95005C17.7973 9.7475 18.1904 9.24175 18.1904 8.64963ZM6.56271 2.07764C6.6955 2.07764 6.82309 2.10903 6.93604 2.16817L5.28496 3.72752C5.12311 3.45043 5.16642 3.09427 5.41492 2.85966L6.01697 2.29106C6.16276 2.15344 6.35659 2.07764 6.56271 2.07764ZM1.66823 8.33543H16.7126C16.8961 8.33543 17.0455 8.47639 17.0455 8.64978C17.0455 8.82303 16.8961 8.96406 16.7126 8.96406H1.66823C1.48472 8.96406 1.33546 8.82303 1.33546 8.64978C1.33546 8.47639 1.48472 8.33543 1.66823 8.33543ZM16.1003 11.732C16.1003 12.9324 15.066 13.9091 13.7948 13.9091H4.58595C3.31474 13.9091 2.28052 12.9325 2.28052 11.732V10.0609H16.1003V11.732Z" fill="#626262"/>
</g>
<defs>
<clipPath id="clip0_28_164">
<rect width="18" height="17" fill="white" transform="translate(0.19043)"/>
</clipPath>
</defs>
</svg>
