<svg width="19" height="16" viewBox="0 0 19 16" fill="none" xmlns="http://www.w3.org/2000/svg">
<g clip-path="url(#clip0_28_169)">
<path d="M17.3117 8.0204V7.71568C17.3117 7.15434 16.9847 6.65987 16.4915 6.37393V3.04993C16.4915 2.17537 15.6911 1.46387 14.7072 1.46387H3.67368C2.68979 1.46387 1.88932 2.17537 1.88932 3.04993V6.3739C1.39608 6.65984 1.06912 7.1543 1.06912 7.71565V8.02037C0.56407 8.13859 0.19043 8.54796 0.19043 9.03352V12.599C0.19043 13.16 0.689016 13.6192 1.31293 13.6453V14.0673C1.31293 14.3257 1.54859 14.5351 1.83926 14.5351C2.12993 14.5351 2.36558 14.3257 2.36558 14.0673V13.6466H16.0152V14.0673C16.0152 14.3257 16.2509 14.5351 16.5416 14.5351C16.8322 14.5351 17.0679 14.3257 17.0679 14.0673V13.6453C17.6918 13.6192 18.1904 13.1599 18.1904 12.599V9.03352C18.1904 8.54793 17.8168 8.13859 17.3117 8.0204ZM2.942 3.04993C2.942 2.6913 3.27022 2.39955 3.67368 2.39955H14.7072C15.1106 2.39955 15.4389 2.6913 15.4389 3.04993V6.11452H14.7371V5.2899C14.7371 4.71271 14.2088 4.24312 13.5594 4.24312H10.7273C10.078 4.24312 9.54969 4.71271 9.54969 5.2899V6.11452H8.83117V5.2899C8.83117 4.71271 8.30287 4.24312 7.65354 4.24312H4.82142C4.17205 4.24312 3.64379 4.71271 3.64379 5.2899V6.11452H2.942V3.04993ZM13.6844 5.28987V6.00343C13.6844 6.06468 13.6283 6.11449 13.5594 6.11449H10.7273C10.6584 6.11449 10.6024 6.06465 10.6024 6.00343V5.28987C10.6024 5.22862 10.6584 5.1788 10.7273 5.1788H13.5594C13.6283 5.1788 13.6844 5.22862 13.6844 5.28987ZM7.77848 5.28987V6.00343C7.77848 6.06468 7.72241 6.11449 7.65354 6.11449H4.82142C4.75252 6.11449 4.69648 6.06465 4.69648 6.00343V5.28987C4.69648 5.22862 4.75255 5.1788 4.82142 5.1788H7.65354C7.72241 5.1788 7.77848 5.22862 7.77848 5.28987ZM2.12181 7.71565C2.12181 7.34871 2.45766 7.05021 2.87046 7.05021H15.5104C15.9232 7.05021 16.2591 7.34874 16.2591 7.71565V7.9859H2.12181V7.71565ZM17.1377 12.599C17.1377 12.6607 17.0813 12.7109 17.0119 12.7109H1.36897C1.29957 12.7109 1.24308 12.6607 1.24308 12.599V9.03352C1.24308 8.97184 1.29954 8.92165 1.36897 8.92165H17.0119C17.0813 8.92165 17.1378 8.97184 17.1378 9.03352V12.599H17.1377Z" fill="#626262"/>
</g>
<defs>
<clipPath id="clip0_28_169">
<rect width="18" height="16" fill="white" transform="translate(0.19043)"/>
</clipPath>
</defs>
</svg>
