<svg width="22" height="16" viewBox="0 0 22 16" fill="none" xmlns="http://www.w3.org/2000/svg">
<path d="M20.849 7.98406V7.61299C20.849 6.92943 20.4509 6.3273 19.8502 5.97911V1.93139C19.8502 0.866412 18.8755 0 17.6774 0H4.24164C3.04354 0 2.06878 0.866412 2.06878 1.93139V5.97907C1.46815 6.32726 1.07001 6.92939 1.07001 7.61295V7.98402C0.454992 8.12798 0 8.62648 0 9.21776V13.5596C0 14.2426 0.607141 14.8019 1.3669 14.8337V15.3475C1.3669 15.6622 1.65386 15.9172 2.00782 15.9172C2.36178 15.9172 2.64874 15.6622 2.64874 15.3475V14.8352H19.2703V15.3475C19.2703 15.6622 19.5572 15.9172 19.9112 15.9172C20.2652 15.9172 20.5521 15.6622 20.5521 15.3475V14.8337C21.3119 14.8019 21.9191 14.2426 21.9191 13.5595V9.21776C21.9191 8.62644 21.4641 8.12798 20.849 7.98406V7.98406ZM3.35066 1.93139C3.35066 1.49468 3.75034 1.13941 4.24164 1.13941H17.6774C18.1687 1.13941 18.5684 1.49468 18.5684 1.93139V5.66322H17.7138V4.65906C17.7138 3.9562 17.0705 3.38436 16.2798 3.38436H12.831C12.0403 3.38436 11.397 3.9562 11.397 4.65906V5.66322H10.522V4.65906C10.522 3.9562 9.87873 3.38436 9.08802 3.38436H5.63928C4.84852 3.38436 4.20525 3.9562 4.20525 4.65906V5.66322H3.35066V1.93139ZM16.4319 4.65902V5.52794C16.4319 5.60253 16.3636 5.66318 16.2798 5.66318H12.831C12.7471 5.66318 12.6789 5.60249 12.6789 5.52794V4.65902C12.6789 4.58443 12.7472 4.52377 12.831 4.52377H16.2798C16.3637 4.52377 16.4319 4.58443 16.4319 4.65902ZM9.24017 4.65902V5.52794C9.24017 5.60253 9.17188 5.66318 9.08802 5.66318H5.63928C5.55537 5.66318 5.48713 5.60249 5.48713 5.52794V4.65902C5.48713 4.58443 5.55541 4.52377 5.63928 4.52377H9.08802C9.17188 4.52377 9.24017 4.58443 9.24017 4.65902V4.65902ZM2.35189 7.61295C2.35189 7.16612 2.76086 6.80263 3.26354 6.80263H18.6555C19.1582 6.80263 19.5672 7.16616 19.5672 7.61295V7.94204H2.35189V7.61295ZM20.6372 13.5595C20.6372 13.6346 20.5684 13.6958 20.4839 13.6958H1.43514C1.35063 13.6958 1.28184 13.6346 1.28184 13.5595V9.21776C1.28184 9.14264 1.35059 9.08153 1.43514 9.08153H20.4839C20.5684 9.08153 20.6372 9.14264 20.6372 9.21776V13.5595H20.6372Z" fill="black"/>
</svg>
