<svg width="21" height="19" viewBox="0 0 21 19" fill="none" xmlns="http://www.w3.org/2000/svg">
<path d="M20.2337 0.605957L20.8125 1.68256L19.2284 2.41956V17.4017C19.2284 18.0363 18.7001 18.5566 18.0301 18.6023L17.9336 18.606H3.69138C3.00904 18.606 2.44971 18.1146 2.40051 17.4914L2.39663 17.4017V10.2472L1.39125 10.7145L0.8125 9.63787L2.39663 8.90147V4.1549H3.69138V8.29934L20.2337 0.605957ZM17.9336 3.02169L3.69138 9.6451V17.4017H7.57563V11.3804C7.57563 10.7458 8.10388 10.2255 8.77392 10.1792L8.87038 10.1762H12.7546C13.437 10.1762 13.9963 10.6675 14.0461 11.2907L14.0494 11.3804V17.4017H17.9336V3.02169ZM12.7546 11.3804H8.87038V17.4017H12.7546V11.3804ZM15.9915 6.56341C16.3489 6.56341 16.6389 6.83316 16.6389 7.16553C16.6389 7.49791 16.3489 7.76766 15.9915 7.76766C15.6341 7.76766 15.3441 7.49791 15.3441 7.16553C15.3441 6.83316 15.6341 6.56341 15.9915 6.56341Z" fill="black"/>
</svg>
