<svg width="80" height="81" viewBox="0 0 80 81" fill="none" xmlns="http://www.w3.org/2000/svg">
<path d="M63.4833 28.05C63.4833 44.9333 40 66.1 40 66.1C40 66.1 16.5167 44.9333 16.5167 28.05C16.5167 15.0833 27.0333 4.56665 40 4.56665C52.9667 4.56665 63.4833 15.0833 63.4833 28.05Z" fill="#3E3E3E"/>
<path d="M40 37.7833C45.3756 37.7833 49.7333 33.4256 49.7333 28.05C49.7333 22.6744 45.3756 18.3167 40 18.3167C34.6244 18.3167 30.2667 22.6744 30.2667 28.05C30.2667 33.4256 34.6244 37.7833 40 37.7833Z" fill="white"/>
<path d="M40 69.4332C39.2 69.4332 38.4 69.1498 37.7667 68.5832C36.7667 67.6832 13.1833 46.2165 13.1833 28.0498C13.2 13.2665 25.2167 1.23315 40 1.23315C54.7833 1.23315 66.8167 13.2665 66.8167 28.0498C66.8167 46.2165 43.25 67.6832 42.2333 68.5832C41.6 69.1498 40.8 69.4332 40 69.4332ZM40 7.89982C28.9 7.89982 19.8667 16.9332 19.8667 28.0498C19.8667 39.3665 32.8167 54.4498 40 61.4998C45.65 55.8998 60.15 40.3498 60.15 28.0498C60.15 16.9332 51.1 7.89982 40 7.89982Z" fill="#313131"/>
<path d="M40 41.1166C32.8 41.1166 26.9333 35.2499 26.9333 28.0499C26.9333 20.8499 32.8 14.9666 40 14.9666C47.2 14.9666 53.0667 20.8332 53.0667 28.0332C53.0667 35.2332 47.2 41.1166 40 41.1166ZM40 21.6332C36.4667 21.6332 33.6 24.4999 33.6 28.0332C33.6 31.5666 36.4667 34.4332 40 34.4332C43.5333 34.4332 46.4 31.5666 46.4 28.0332C46.4 24.4999 43.5333 21.6332 40 21.6332ZM75.8333 79.5666H4.16667C2.93334 79.5666 1.80001 78.8832 1.23334 77.7999C0.650006 76.7165 0.716673 75.3999 1.40001 74.3665L17.7333 50.0332C18.35 49.1166 19.3833 48.5499 20.5 48.5499H27.1V55.2165H22.2833L10.4167 72.8999H69.5833L57.7167 55.2332H52.9V48.5665H59.5C60.6167 48.5665 61.65 49.1166 62.2667 50.0499L78.6 74.3832C79.2833 75.3999 79.35 76.7165 78.7667 77.8165C78.2 78.8832 77.0667 79.5666 75.8333 79.5666Z" fill="#313131"/>
</svg>
