<svg width="81" height="81" viewBox="0 0 81 81" fill="none" xmlns="http://www.w3.org/2000/svg">
<path d="M40.68 43.7333C38.68 43.7333 37.3467 42.4 37.3467 40.4C37.3467 38.4 38.68 37.0667 40.68 37.0667C42.68 37.0667 44.0133 38.4 44.0133 40.4C44.0133 42.4 42.68 43.7333 40.68 43.7333Z" fill="#3E3E3E"/>
<path d="M60.68 17.0666V57.0666C60.68 58.7332 59.0133 60.3999 57.3467 60.3999H50.68V25.0666C50.68 22.0666 48.68 19.7332 46.0133 18.7332L20.68 10.3999H54.0133C57.68 10.3999 60.68 13.3999 60.68 17.0666Z" fill="#3E3E3E"/>
<path d="M54.0134 7.06665H20.68H20.3467H20.0133C19.68 7.06665 19.3467 7.39998 19.0133 7.39998C19.0133 7.39998 19.0133 7.39998 18.68 7.39998C18.68 7.39998 18.68 7.39998 18.3467 7.73332C18.3467 8.06665 18.0133 8.39998 18.0133 8.73332C17.68 9.06665 17.3467 9.39998 17.3467 9.73332C17.3467 10.0667 17.3467 10.4 17.3467 10.4V58.0667C17.3467 61.0667 19.0133 63.4 22.0133 64.4L45.3467 72.0667C46.0133 72.4 46.68 72.4 47.3467 72.4C48.68 72.4 50.0134 72.0667 51.3467 71.0667C53.0134 69.7333 54.0134 67.7333 54.0134 65.7333V63.7333H57.3467C61.0134 63.7333 64.0134 60.7333 64.0134 57.0667V17.0667C64.0134 11.4 59.68 7.06665 54.0134 7.06665ZM47.3467 65.7333L24.0133 58.0667V15.0667L45.0133 22.0667C46.3467 22.4 47.3467 23.7333 47.3467 25.0667V60.4V65.7333ZM57.3467 57.0667H54.0134V25.0667C54.0134 20.7333 51.3467 17.0667 47.0133 15.7333L41.3467 13.7333H54.0134C56.0134 13.7333 57.3467 15.0667 57.3467 17.0667V57.0667Z" fill="#313131"/>
</svg>
