<svg width="81" height="81" viewBox="0 0 81 81" fill="none" xmlns="http://www.w3.org/2000/svg">
<path d="M6.51383 30.5537C5.7446 30.5537 4.97537 30.2461 4.35998 29.6307C3.12921 28.3999 3.12921 26.5537 4.35998 25.323C13.8984 15.6307 26.8215 10.3999 40.36 10.3999C53.8984 10.3999 66.8215 15.6307 76.36 25.323C77.5908 26.5537 77.5908 28.3999 76.36 29.6307C75.1292 30.8614 73.2831 30.8614 72.0523 29.6307C63.5908 21.1691 52.36 16.5537 40.36 16.5537C28.36 16.5537 17.1292 21.1691 8.66767 29.6307C8.05229 30.2461 7.28306 30.5537 6.51383 30.5537Z" fill="#313131"/>
<path d="M15.1292 39.1691C14.36 39.1691 13.5907 38.8614 12.9754 38.246C11.7446 37.0153 11.7446 35.1691 12.9754 33.9383C20.2061 26.7076 30.0523 22.5537 40.36 22.5537C50.6677 22.5537 60.36 26.5537 67.7446 33.9383C68.9754 35.1691 68.9754 37.0153 67.7446 38.246C66.5138 39.4768 64.6677 39.4768 63.4369 38.246C57.2831 32.0922 49.1292 28.7076 40.5138 28.7076C31.8984 28.7076 23.7446 32.0922 17.5907 38.246C16.8215 38.8614 16.0523 39.1691 15.1292 39.1691Z" fill="#313131"/>
<path d="M23.8984 47.9385C23.1292 47.9385 22.36 47.6308 21.7446 47.0154C20.5138 45.7846 20.5138 43.9385 21.7446 42.7077C26.6677 37.7846 33.2831 35.0154 40.36 35.0154C47.4369 35.0154 54.0523 37.7846 58.9754 42.7077C60.2061 43.9385 60.2061 45.7846 58.9754 47.0154C57.7446 48.2461 55.8984 48.2461 54.6677 47.0154C50.8215 43.1692 45.7446 41.1692 40.36 41.1692C34.9754 41.1692 29.8984 43.3231 26.0523 47.1692C25.4369 47.6308 24.6677 47.9385 23.8984 47.9385Z" fill="#313131"/>
<path d="M40.36 67.3229C44.9482 67.3229 48.6677 63.6034 48.6677 59.0152C48.6677 54.427 44.9482 50.7075 40.36 50.7075C35.7718 50.7075 32.0523 54.427 32.0523 59.0152C32.0523 63.6034 35.7718 67.3229 40.36 67.3229Z" fill="#3E3E3E"/>
<path d="M40.36 70.4C37.4369 70.4 34.5138 69.3231 32.36 67.0154C27.8984 62.5538 27.8984 55.3231 32.36 50.8615C36.8215 46.4 44.0523 46.4 48.5138 50.8615C50.6677 53.0154 51.8984 55.9385 51.8984 58.8615C51.8984 61.7846 50.6677 64.7077 48.5138 66.8615C46.2061 69.3231 43.2831 70.4 40.36 70.4ZM40.36 53.7846C38.9754 53.7846 37.5908 54.2462 36.6677 55.3231C34.6677 57.3231 34.6677 60.7077 36.6677 62.7077C38.6677 64.7077 42.0523 64.7077 44.0523 62.7077C44.9754 61.7846 45.5908 60.4 45.5908 59.0154C45.5908 57.6308 44.9754 56.2462 44.0523 55.3231C43.1292 54.2462 41.7446 53.7846 40.36 53.7846Z" fill="#313131"/>
</svg>
