<svg width="162" height="59" viewBox="0 0 162 59" fill="none" xmlns="http://www.w3.org/2000/svg">
<g filter="url(#filter0_d_11_10)">
<path d="M26.64 34.32C26.5333 34.3467 26.3733 34.4933 26.16 34.76C25.9733 35.0267 25.84 35.3067 25.76 35.6C25.6267 36.0267 25.6667 36.3733 25.88 36.64C26.44 37.3067 27.16 38.0933 28.04 39C28.92 39.88 29.8 40.72 30.68 41.52C31.5867 42.32 32.36 42.9333 33 43.36C32.52 44.64 31.76 45.6667 30.72 46.44C29.7067 47.1867 28.5733 47.5467 27.32 47.52C26.0667 47.4933 24.84 46.9333 23.64 45.84C23.48 45.68 23.1733 45.3333 22.72 44.8C22.2667 44.24 21.7467 43.5867 21.16 42.84C20.5733 42.0933 19.9867 41.3467 19.4 40.6C18.8133 39.8533 18.3067 39.2 17.88 38.64C17.4533 38.08 17.1867 37.7333 17.08 37.6C16.5733 36.9333 16.0933 36.7867 15.64 37.16C15.1867 37.5333 14.9067 38.3067 14.8 39.48C14.7467 40.1733 14.7467 40.9733 14.8 41.88C14.88 42.76 14.9867 43.5467 15.12 44.24C15.28 44.9333 15.44 45.3467 15.6 45.48C15.04 45.9067 14.3467 46.3067 13.52 46.68C12.6933 47.0533 11.7467 47.28 10.68 47.36C10.28 47.3867 9.81333 47.28 9.28 47.04C8.74667 46.8 8.28 46.4133 7.88 45.88C7.50667 45.32 7.30667 44.6267 7.28 43.8C7.28 43.5867 7.26667 43.0267 7.24 42.12C7.24 41.2133 7.22667 40.1067 7.2 38.8C7.2 37.4667 7.2 36.0933 7.2 34.68C7.2 33.2667 7.18667 31.9333 7.16 30.68C7.16 29.4267 7.16 28.4133 7.16 27.64C7.16 26.8667 7.16 26.48 7.16 26.48C7.16 24.9067 7.12 23.6 7.04 22.56C6.96 21.4933 6.64 20.68 6.08 20.12C5.57333 19.6133 5.18667 18.88 4.92 17.92C4.68 16.96 4.57333 16.0533 4.6 15.2C4.70667 15.2267 5.02667 15.2667 5.56 15.32C6.09333 15.3467 6.61333 15.3867 7.12 15.44C7.46667 15.44 7.96 15.44 8.6 15.44C9.26667 15.4133 9.97333 15.3867 10.72 15.36C11.4667 15.3333 12.16 15.32 12.8 15.32C13.44 15.2933 13.92 15.2667 14.24 15.24C14.48 15.24 14.92 15.24 15.56 15.24C16.2267 15.2133 17 15.2 17.88 15.2C18.76 15.2 19.6533 15.2133 20.56 15.24C21.4667 15.24 22.3067 15.2667 23.08 15.32C23.8533 15.3733 24.4533 15.44 24.88 15.52C26.64 15.84 28 16.4267 28.96 17.28C29.92 18.1333 30.6 19.16 31 20.36C31.4267 21.56 31.68 22.8667 31.76 24.28C31.8133 25.48 31.68 26.7333 31.36 28.04C31.04 29.3467 30.4933 30.56 29.72 31.68C28.9467 32.8 27.92 33.68 26.64 34.32ZM14.88 25.72C14.88 26.5733 15.08 27.2133 15.48 27.64C15.88 28.04 16.2533 28.28 16.6 28.36C17.08 28.4667 17.6933 28.48 18.44 28.4C19.1867 28.2933 19.9333 28.1067 20.68 27.84C21.4267 27.5467 22.0533 27.1733 22.56 26.72C23.0933 26.2667 23.36 25.7467 23.36 25.16C23.36 24.3867 23.04 23.8 22.4 23.4C21.76 22.9733 20.9467 22.7067 19.96 22.6C19 22.4933 18.04 22.52 17.08 22.68C16.3333 22.7867 15.7733 23.12 15.4 23.68C15.0267 24.24 14.8533 24.92 14.88 25.72Z" fill="#F0872B"/>
</g>
<g filter="url(#filter1_d_11_10)">
<path d="M45.8463 34.0325C47.6727 33.3221 49.2825 32.1335 50.5 30.5892C51.7175 32.1335 53.3273 33.3221 55.1537 34.0325C54.4368 35.3238 53.9856 36.7492 53.8298 38.2203C51.6646 37.5327 49.3354 37.5327 47.1702 38.2203C47.0144 36.7492 46.5632 35.3238 45.8463 34.0325Z" stroke="#F0872B" stroke-width="14" shape-rendering="crispEdges"/>
</g>
<g filter="url(#filter2_d_11_10)">
<path d="M79.8463 34.0325C81.6727 33.3221 83.2825 32.1335 84.5 30.5892C85.7175 32.1335 87.3273 33.3221 89.1537 34.0325C88.4368 35.3238 87.9856 36.7492 87.8298 38.2203C85.6646 37.5327 83.3354 37.5327 81.1702 38.2203C81.0144 36.7492 80.5632 35.3238 79.8463 34.0325Z" stroke="#F0872B" stroke-width="14" shape-rendering="crispEdges"/>
</g>
<g filter="url(#filter3_d_11_10)">
<path d="M117.12 24.52C117.627 24.4667 118.12 24.3867 118.6 24.28C119.08 24.1467 119.413 23.9867 119.6 23.8C119.867 24.0667 120.067 24.56 120.2 25.28C120.36 25.9733 120.4 26.7333 120.32 27.56C120.267 28.3867 120.067 29.1467 119.72 29.84C119.4 30.5333 118.907 31 118.24 31.24C117.893 31.3467 117.587 31.48 117.32 31.64C117.053 31.7733 116.84 32.0133 116.68 32.36C116.413 32.92 116.187 33.6267 116 34.48C115.813 35.3333 115.733 36.2933 115.76 37.36C115.76 37.36 115.76 37.6133 115.76 38.12C115.787 38.6 115.8 39.2 115.8 39.92C115.8 40.6133 115.773 41.2933 115.72 41.96C115.693 42.6267 115.627 43.1467 115.52 43.52C115.093 44.8 114.227 45.7867 112.92 46.48C111.613 47.1733 109.653 47.3467 107.04 47C107.253 46.6267 107.427 46.0133 107.56 45.16C107.693 44.3067 107.8 43.3733 107.88 42.36C107.96 41.3467 107.987 40.44 107.96 39.64C107.96 39.48 107.947 39.16 107.92 38.68C107.893 38.2 107.867 37.6 107.84 36.88C107.68 35.2267 107.24 33.7867 106.52 32.56C106.333 32.2667 105.987 31.92 105.48 31.52C105 31.12 104.573 30.8 104.2 30.56C103.72 30.2667 103.36 29.72 103.12 28.92C102.88 28.12 102.72 27.28 102.64 26.4C102.587 25.4933 102.573 24.7333 102.6 24.12C102.68 24.1467 102.88 24.1867 103.2 24.24C103.52 24.2933 103.867 24.3333 104.24 24.36C104.613 24.3867 104.907 24.4 105.12 24.4C105.76 24.3467 106.28 24.0933 106.68 23.64C107.08 23.1867 107.28 22.4933 107.28 21.56C107.28 20.4933 107.44 19.44 107.76 18.4C108.107 17.36 108.653 16.4667 109.4 15.72C110.173 14.9467 111.187 14.44 112.44 14.2C113.293 14.04 114.2 13.92 115.16 13.84C116.147 13.76 117.08 13.7067 117.96 13.68C118.84 13.6533 119.547 13.64 120.08 13.64C120.64 13.64 120.92 13.64 120.92 13.64C120.92 13.64 120.92 13.92 120.92 14.48C120.92 15.0133 120.853 15.6533 120.72 16.4C120.613 17.1467 120.387 17.8533 120.04 18.52C119.72 19.16 119.227 19.5867 118.56 19.8C117.573 20.12 116.773 20.64 116.16 21.36C115.573 22.08 115.293 22.72 115.32 23.28C115.32 23.8667 115.493 24.24 115.84 24.4C116.187 24.5333 116.613 24.5733 117.12 24.52Z" fill="#F0872B"/>
<path d="M124.803 42.72C124.803 42.5067 124.803 41.9333 124.803 41C124.803 40.04 124.803 38.8533 124.803 37.44C124.803 36.0267 124.79 34.48 124.763 32.8C124.763 31.0933 124.763 29.3733 124.763 27.64C124.763 25.9067 124.75 24.2667 124.723 22.72C124.723 21.1467 124.71 19.7867 124.683 18.64C124.657 17.5467 124.563 16.64 124.403 15.92C124.243 15.1733 124.15 14.72 124.123 14.56C124.443 14.5067 124.923 14.4933 125.563 14.52C126.203 14.52 126.91 14.6 127.683 14.76C128.483 14.8933 129.243 15.12 129.963 15.44C130.683 15.7333 131.283 16.16 131.763 16.72C132.243 17.2533 132.497 17.9333 132.523 18.76C132.55 19.2667 132.563 20.16 132.563 21.44C132.59 22.6933 132.603 24.1733 132.603 25.88C132.63 27.56 132.657 29.2933 132.683 31.08C132.71 32.84 132.723 34.5067 132.723 36.08C132.75 37.6533 132.763 38.9733 132.763 40.04C132.79 41.08 132.803 41.6933 132.803 41.88C132.803 42.44 132.95 42.9867 133.243 43.52C133.563 44.0267 133.897 44.3467 134.243 44.48C134.083 44.6933 133.723 44.9733 133.163 45.32C132.603 45.6667 131.95 45.9867 131.203 46.28C130.483 46.5733 129.75 46.76 129.003 46.84C128.39 46.8933 127.75 46.7467 127.083 46.4C126.443 46.08 125.897 45.6 125.443 44.96C125.017 44.32 124.803 43.5733 124.803 42.72ZM151.564 23.04C153.404 23.28 154.737 23.8133 155.564 24.64C156.417 25.4667 156.897 26.44 157.004 27.56C157.137 28.68 157.017 29.8267 156.644 31C156.43 31.6667 156.11 32.52 155.684 33.56C155.284 34.5733 154.857 35.6133 154.404 36.68C153.977 37.7467 153.577 38.7067 153.204 39.56C152.83 40.3867 152.577 40.9733 152.444 41.32C152.017 42.3067 151.51 43.36 150.924 44.48C150.337 45.5733 149.684 46.6 148.964 47.56C148.27 48.52 147.537 49.3067 146.764 49.92C146.017 50.5333 145.284 50.84 144.564 50.84C143.604 50.84 142.817 50.6 142.204 50.12C141.617 49.64 141.177 49.04 140.884 48.32C140.59 47.6267 140.404 46.9467 140.324 46.28C141.017 46.4667 141.657 46.4533 142.244 46.24C142.83 46.0533 143.337 45.7733 143.764 45.4C144.164 45.0267 144.404 44.6 144.484 44.12C144.59 43.64 144.617 43.2133 144.564 42.84C144.43 41.3467 144.017 39.7333 143.324 38L137.444 23.44C137.844 23.3867 138.364 23.32 139.004 23.24C139.67 23.1333 140.364 23.12 141.084 23.2C141.83 23.2533 142.524 23.4533 143.164 23.8C143.83 24.12 144.377 24.6667 144.804 25.44C144.964 25.7067 145.15 26.12 145.364 26.68C145.604 27.2133 145.844 27.7867 146.084 28.4C146.35 28.9867 146.564 29.4933 146.724 29.92C147.017 30.56 147.324 31.08 147.644 31.48C147.99 31.8533 148.337 32.0533 148.684 32.08C148.977 32.1067 149.27 32 149.564 31.76C149.857 31.4933 150.097 31.16 150.284 30.76C150.444 30.3867 150.63 29.8267 150.844 29.08C151.057 28.3333 151.23 27.7067 151.364 27.2C151.604 26.2667 151.724 25.4667 151.724 24.8C151.75 24.1333 151.697 23.5467 151.564 23.04Z" fill="#2E8407" fill-opacity="0.88"/>
</g>
<defs>
<filter id="filter0_d_11_10" x="0.560059" y="15.2" width="36.4399" height="40.3601" filterUnits="userSpaceOnUse" color-interpolation-filters="sRGB">
<feFlood flood-opacity="0" result="BackgroundImageFix"/>
<feColorMatrix in="SourceAlpha" type="matrix" values="0 0 0 0 0 0 0 0 0 0 0 0 0 0 0 0 0 0 127 0" result="hardAlpha"/>
<feOffset dy="4"/>
<feGaussianBlur stdDeviation="2"/>
<feComposite in2="hardAlpha" operator="out"/>
<feColorMatrix type="matrix" values="0 0 0 0 0 0 0 0 0 0 0 0 0 0 0 0 0 0 0.25 0"/>
<feBlend mode="normal" in2="BackgroundImageFix" result="effect1_dropShadow_11_10"/>
<feBlend mode="normal" in="SourceGraphic" in2="effect1_dropShadow_11_10" result="shape"/>
</filter>
<filter id="filter1_d_11_10" x="31.422" y="19.7339" width="38.156" height="36.0566" filterUnits="userSpaceOnUse" color-interpolation-filters="sRGB">
<feFlood flood-opacity="0" result="BackgroundImageFix"/>
<feColorMatrix in="SourceAlpha" type="matrix" values="0 0 0 0 0 0 0 0 0 0 0 0 0 0 0 0 0 0 127 0" result="hardAlpha"/>
<feOffset dy="4"/>
<feGaussianBlur stdDeviation="2"/>
<feComposite in2="hardAlpha" operator="out"/>
<feColorMatrix type="matrix" values="0 0 0 0 0 0 0 0 0 0 0 0 0 0 0 0 0 0 0.25 0"/>
<feBlend mode="normal" in2="BackgroundImageFix" result="effect1_dropShadow_11_10"/>
<feBlend mode="normal" in="SourceGraphic" in2="effect1_dropShadow_11_10" result="shape"/>
</filter>
<filter id="filter2_d_11_10" x="65.422" y="19.7339" width="38.156" height="36.0566" filterUnits="userSpaceOnUse" color-interpolation-filters="sRGB">
<feFlood flood-opacity="0" result="BackgroundImageFix"/>
<feColorMatrix in="SourceAlpha" type="matrix" values="0 0 0 0 0 0 0 0 0 0 0 0 0 0 0 0 0 0 127 0" result="hardAlpha"/>
<feOffset dy="4"/>
<feGaussianBlur stdDeviation="2"/>
<feComposite in2="hardAlpha" operator="out"/>
<feColorMatrix type="matrix" values="0 0 0 0 0 0 0 0 0 0 0 0 0 0 0 0 0 0 0.25 0"/>
<feBlend mode="normal" in2="BackgroundImageFix" result="effect1_dropShadow_11_10"/>
<feBlend mode="normal" in="SourceGraphic" in2="effect1_dropShadow_11_10" result="shape"/>
</filter>
<filter id="filter3_d_11_10" x="98.5601" y="13.6399" width="62.6437" height="45.2002" filterUnits="userSpaceOnUse" color-interpolation-filters="sRGB">
<feFlood flood-opacity="0" result="BackgroundImageFix"/>
<feColorMatrix in="SourceAlpha" type="matrix" values="0 0 0 0 0 0 0 0 0 0 0 0 0 0 0 0 0 0 127 0" result="hardAlpha"/>
<feOffset dy="4"/>
<feGaussianBlur stdDeviation="2"/>
<feComposite in2="hardAlpha" operator="out"/>
<feColorMatrix type="matrix" values="0 0 0 0 0 0 0 0 0 0 0 0 0 0 0 0 0 0 0.25 0"/>
<feBlend mode="normal" in2="BackgroundImageFix" result="effect1_dropShadow_11_10"/>
<feBlend mode="normal" in="SourceGraphic" in2="effect1_dropShadow_11_10" result="shape"/>
</filter>
</defs>
</svg>
